<svg xmlns="http://www.w3.org/2000/svg" data-name="Layer 1" viewBox="0 0 100 125" x="0px" y="0px"><defs><style>.cls-1{fill:none;}</style></defs><title>Fig</title><path class="cls-1" d="M55.78,31.29c.35-1.06.91-2.69,1.68-4.61a3.94,3.94,0,0,1-1.19,1.24,1.48,1.48,0,0,1-1.54,0,2.12,2.12,0,0,1-.71-.7A17.78,17.78,0,0,0,55.78,31.29Z"/><path class="cls-1" d="M58.46,22.07a10,10,0,0,1-.26,2.79,60.37,60.37,0,0,1,3.68-7.31,1,1,0,1,1,1.71,1A54.68,54.68,0,0,0,60.77,24a42.06,42.06,0,0,1,3.82-3.08c.67-.5,1.29-1,1.74-1.34s.5-.65.23-1.74a7.24,7.24,0,0,1-.28-2.17,11.25,11.25,0,0,1,.18-1.37c.08-.45.21-1.14.08-1.29s-.18-.21-1.07-.28c-1.87-.1-3.61,3.09-4.07,4.23a1,1,0,0,1-1.09.61,1.65,1.65,0,0,0-1.35.18c-.65.58-.58,2.5-.52,4Z"/><path class="cls-1" d="M35.29,43.65a6.42,6.42,0,0,1-3,.71H32c-.23,2.58-3,5-5.38,7.22-.53.47-1,.93-1.48,1.36A28.7,28.7,0,0,0,16.6,72a12.23,12.23,0,0,0,3.74,9.31c4.3,4.31,11.92,6.69,20.36,6.37,13.4-.51,21.74-8.88,22.78-16.51.93-6.77-3.1-18.24-14.71-21.34-.33-.09-7.94-2.23-10.84-3.75A8.27,8.27,0,0,1,35.29,43.65Zm10.18,9a3.78,3.78,0,1,1-3.78,3.78A3.79,3.79,0,0,1,45.47,52.68ZM38.55,79.77a1,1,0,0,1-.15,2h-.15c-6-.92-10.22-3.49-12.48-7.62-4.57-8.37.55-20.06.77-20.55a1,1,0,0,1,1.83.82c0,.11-4.94,11.28-.84,18.78C29.47,76.73,33.18,78.95,38.55,79.77Z"/><path class="cls-1" d="M31.91,42.35A4.75,4.75,0,0,0,34.19,42a19.73,19.73,0,0,1-1.3-2.79,1,1,0,0,1,1.25-1.29,8,8,0,0,0,.95.21,12.07,12.07,0,0,1-3.8-1.43l-.61-.05.14.57A47.06,47.06,0,0,1,31.91,42.35Z"/><circle class="cls-1" cx="45.47" cy="56.47" r="1.78"/><path class="cls-1" d="M53.75,34a.93.93,0,0,1,0,.11,6.12,6.12,0,0,1,.67-1s0,0,0-.07a1,1,0,0,1,0-.21c-1-1.21-2.24-3.85-3.63-9.45a1,1,0,0,1,1.94-.48c.13.54.27,1,.4,1.52,0-.36-.06-.72-.06-1.06,0-1.45-.72-3.31-1.46-3.76a.46.46,0,0,0-.53,0,2.35,2.35,0,0,0-1,1.44A5.51,5.51,0,0,0,50.46,25c.83,1.5.55,2.32-.15,3.09-.21.23-.27.3-.28.5,0,.44,1.27,1.67,2.58,2.53a1,1,0,0,1,0,1.7,18.23,18.23,0,0,1-1.82.82c-1.34.57-3.52,1.49-6.85,3.05,3.85-1.37,8.49-3.16,8.55-3.19A1,1,0,0,1,53.75,34Z"/><path class="cls-1" d="M78.46,18.58a3.72,3.72,0,0,0-2.52.49c-.31.3-.32.82-.31,1.51a3.32,3.32,0,0,1-.14,1.3,3.05,3.05,0,0,1-2,1.78,4,4,0,0,1-3.56-1c-.12-.09-.41-.3-.59-.26-.62.17-1.37,2.11-1.82,3.28l-.13.34a7.47,7.47,0,0,1-3.83,4.32,2.89,2.89,0,0,1-2.44-.14,2.93,2.93,0,0,1-1.45-1.87,4.13,4.13,0,0,1-.09-1.47c-.86,2.12-1.49,3.93-1.86,5.06,3.33-.45,10-2.1,20-7.92a1,1,0,1,1,1,1.73,75.48,75.48,0,0,1-13.41,6.31,8.58,8.58,0,0,1,2.6.31c3.93,1.09,6.92,1.84,7.6,1.91.51,0,1-.89,1.18-2.28a3.2,3.2,0,0,1,1.46-2.51,2.79,2.79,0,0,1,2.52,0s1.09-.39,3.21-5.36c.65-1.53.72-2.74.19-3.58C83.29,19.4,81.37,18.71,78.46,18.58Z"/><path class="cls-1" d="M62.48,35.72a2.28,2.28,0,0,1-.21-2.15,2.06,2.06,0,0,1,.62-.76A35.93,35.93,0,0,1,58,33.89c1.8,2.27,6.11,6.4,14.21,7.5a1,1,0,0,1-.13,2H72c-9.18-1.24-14.18-6.19-16.05-8.88-.92,1.11-2.21,4,.71,10a1,1,0,0,1-1.8.88c-2.32-4.76-2.28-8-1.59-10h0c-.06,0-1.45.78-2.62,3.68-.35.86-.33,1.35-.2,1.52s.71.26.9.24h.1a1,1,0,0,1,.95,1.33c-1.17,3.4,3.77,5.84,4.34,6.11.21.1.5.19.67.06.35-.28.78-1.55.16-4.57-.3-1.47-.51-3.26.58-4.05s2.24,0,2.76.28L61,40c.3.09.49.32,1.88,2a35.91,35.91,0,0,0,3.51,3.94c.89.7,5,.28,8.48-1.21.9-.38,1.42-.84,1.54-1.35s-.06-1.49-1.57-3.22c-2-2.29-6.27-2.47-8.57-2.57A4.53,4.53,0,0,1,62.48,35.72Z"/><path d="M27.53,73.17c-4.1-7.5.79-18.67.84-18.78a1,1,0,0,0-1.83-.82c-.22.49-5.34,12.18-.77,20.55,2.25,4.13,6.45,6.7,12.48,7.62h.15a1,1,0,0,0,.15-2C33.18,78.95,29.47,76.73,27.53,73.17Z"/><path d="M45.47,60.25a3.78,3.78,0,1,0-3.78-3.78A3.79,3.79,0,0,0,45.47,60.25Zm0-5.56a1.78,1.78,0,1,1-1.78,1.78A1.78,1.78,0,0,1,45.47,54.68Z"/><path d="M85.72,19.5c-1.11-1.77-3.53-2.76-7.17-2.92-1.89-.09-3.2.26-4,1.05a3.76,3.76,0,0,0-.91,3c0,.2,0,.46,0,.52a1,1,0,0,1-.68.58,2.16,2.16,0,0,1-1.8-.61,2.61,2.61,0,0,0-2.36-.62c-1.59.43-2.39,2.49-3.16,4.48l-.13.34a5.63,5.63,0,0,1-2.65,3.17.9.9,0,0,1-.8,0,.92.92,0,0,1-.48-.62A3.3,3.3,0,0,1,62,25.66a33.89,33.89,0,0,1,3.82-3.13c.68-.52,1.32-1,1.79-1.37,1.54-1.23,1.18-2.71.92-3.78a5.42,5.42,0,0,1-.23-1.59,9.69,9.69,0,0,1,.16-1.12,3.47,3.47,0,0,0-.3-2.88,3.24,3.24,0,0,0-2.5-1c-3-.24-5,3.24-5.76,4.79a3.06,3.06,0,0,0-2.21.73c-1.36,1.21-1.28,3.45-1.2,5.62v.25a5.52,5.52,0,0,1-.92,3.78,6.81,6.81,0,0,1-.43-2.52c0-1.66-.75-4.46-2.43-5.47a2.45,2.45,0,0,0-2.49-.05,4.22,4.22,0,0,0-2,2.64,7.47,7.47,0,0,0,.52,5.42,3.79,3.79,0,0,1,.27.6l-.15.18A2.69,2.69,0,0,0,48,28.39c-.1,1.2,1,2.45,2.07,3.33l-.13.05c-1.46.62-3.9,1.65-7.72,3.46a10.49,10.49,0,0,1-10-.35,1,1,0,0,0-.41-.16c-2.13-.33-2.67.14-2.85.29a1.18,1.18,0,0,0-.42.91,9.07,9.07,0,0,0,.37,1.75A31.52,31.52,0,0,1,30,44c0,1.82-2.63,4.18-4.74,6.07-.54.49-1.06,1-1.53,1.4A30.76,30.76,0,0,0,14.6,71.91a14.18,14.18,0,0,0,4.32,10.8c4.47,4.48,11.77,7,20.21,7,.54,0,1.09,0,1.64,0,14.49-.55,23.53-9.8,24.69-18.23C66.69,62.53,60.85,51,49.31,47.9c-.08,0-7.73-2.17-10.44-3.59-1.4-.74-2.6-2.62-3.36-4.13a13.78,13.78,0,0,0,5.75-.5c2.13-.67,5.57-1.93,8.21-2.92a15,15,0,0,0-.7,1.49c-.6,1.47-.58,2.64,0,3.47a2.54,2.54,0,0,0,1.39.91c-.33,3.29,2.69,6,5.64,7.37a2.57,2.57,0,0,0,2.76-.17c1.26-1,1.56-3.25.88-6.54a5.91,5.91,0,0,1-.18-1.92,4,4,0,0,1,.57.29l.18.1c.22.22.77.91,1.27,1.52a34.44,34.44,0,0,0,3.82,4.24c2.21,1.73,8,.11,10.5-.94a4.12,4.12,0,0,0,2.7-2.75c.33-1.43-.33-3.06-2-5-2.56-2.93-7.39-3.14-10-3.25a2.65,2.65,0,0,1-2.18-.9.39.39,0,0,1-.08-.28c.15-.24,1.48-.58,3.24-.09,2.48.69,6.81,1.86,7.94,2,.63.06,2.76,0,3.35-4,.12-.82.37-1,.45-1.06a1,1,0,0,1,.75.1,1.87,1.87,0,0,0,1.48,0c.85-.33,2.22-1.36,4.38-6.41C86.61,22.76,86.62,20.93,85.72,19.5ZM31.3,36.67a12.07,12.07,0,0,0,3.8,1.43,8,8,0,0,1-.95-.21,1,1,0,0,0-1.25,1.29A19.73,19.73,0,0,0,34.19,42a4.75,4.75,0,0,1-2.28.39,47.06,47.06,0,0,0-1.08-5.17l-.14-.57Zm6.64,9.42c2.9,1.52,10.51,3.65,10.84,3.75,11.6,3.1,15.63,14.57,14.71,21.34-1,7.62-9.38,16-22.78,16.51-8.44.31-16.06-2.06-20.36-6.37A12.23,12.23,0,0,1,16.6,72a28.7,28.7,0,0,1,8.54-19.06c.45-.43,1-.89,1.48-1.36,2.43-2.18,5.16-4.64,5.38-7.22h.23a6.42,6.42,0,0,0,3-.71A8.27,8.27,0,0,0,37.94,46.08ZM59,17.78a1.65,1.65,0,0,1,1.35-.18A1,1,0,0,0,61.41,17c.46-1.14,2.2-4.33,4.07-4.23.89.06,1.06.27,1.07.28s0,.84-.08,1.29a11.25,11.25,0,0,0-.18,1.37,7.24,7.24,0,0,0,.28,2.17c.27,1.09.27,1.34-.23,1.74s-1.08.83-1.74,1.34A42.06,42.06,0,0,0,60.77,24a54.68,54.68,0,0,1,2.83-5.44,1,1,0,1,0-1.71-1,60.37,60.37,0,0,0-3.68,7.31,10,10,0,0,0,.26-2.79v-.25C58.4,20.28,58.32,18.35,59,17.78ZM54.73,28a1.48,1.48,0,0,0,1.54,0,3.94,3.94,0,0,0,1.19-1.24c-.77,1.93-1.33,3.55-1.68,4.61a17.78,17.78,0,0,1-1.76-4A2.12,2.12,0,0,0,54.73,28Zm-10.82,8.7c3.33-1.56,5.51-2.48,6.85-3.05a18.23,18.23,0,0,0,1.82-.82,1,1,0,0,0,0-1.7C51.3,30.23,50,29,50,28.56c0-.2.08-.28.28-.5.69-.77,1-1.58.15-3.09a5.51,5.51,0,0,1-.35-3.87,2.35,2.35,0,0,1,1-1.44.46.46,0,0,1,.53,0c.74.44,1.46,2.31,1.46,3.76,0,.34,0,.7.06,1.06-.13-.48-.26-1-.4-1.52a1,1,0,0,0-1.94.48c1.39,5.61,2.66,8.24,3.63,9.45a1,1,0,0,0,0,.21s0,0,0,.07a6.12,6.12,0,0,0-.67,1,.93.93,0,0,0,0-.11,1,1,0,0,0-1.29-.55C52.4,33.5,47.76,35.29,43.91,36.66Zm22.36.9c2.3.1,6.57.28,8.57,2.57,1.51,1.73,1.69,2.7,1.57,3.22s-.63,1-1.54,1.35c-3.5,1.49-7.59,1.92-8.48,1.21A35.91,35.91,0,0,1,62.88,42c-1.39-1.7-1.58-1.92-1.88-2l-.11-.06c-.52-.3-1.75-1-2.76-.28s-.89,2.58-.58,4.05c.62,3,.19,4.29-.16,4.57-.17.13-.46,0-.67-.06-.57-.27-5.51-2.71-4.34-6.11a1,1,0,0,0-.95-1.33h-.1c-.19,0-.74,0-.9-.24s-.14-.66.2-1.52c1.18-2.9,2.56-3.65,2.62-3.68h0c-.68,2-.72,5.24,1.59,10a1,1,0,1,0,1.8-.87c-2.92-6-1.63-8.85-.71-10,1.87,2.69,6.87,7.64,16.05,8.88h.13a1,1,0,0,0,.13-2c-8.1-1.1-12.41-5.23-14.21-7.5a35.93,35.93,0,0,0,4.84-1.07,2.06,2.06,0,0,0-.62.76,2.28,2.28,0,0,0,.21,2.15A4.53,4.53,0,0,0,66.27,37.57ZM83.84,24.14c-2.12,5-3.23,5.33-3.21,5.36a2.79,2.79,0,0,0-2.52,0A3.2,3.2,0,0,0,76.65,32c-.21,1.39-.66,2.31-1.18,2.28-.68-.07-3.67-.82-7.6-1.91a8.58,8.58,0,0,0-2.6-.31,75.48,75.48,0,0,0,13.41-6.31,1,1,0,1,0-1-1.73c-10,5.82-16.67,7.46-20,7.92.37-1.13,1-2.94,1.86-5.06a4.13,4.13,0,0,0,.09,1.47,2.93,2.93,0,0,0,1.45,1.87,2.89,2.89,0,0,0,2.44.14A7.47,7.47,0,0,0,67.35,26l.13-.34c.45-1.16,1.21-3.11,1.82-3.28.18,0,.47.17.59.26a4,4,0,0,0,3.56,1,3.05,3.05,0,0,0,2-1.78,3.32,3.32,0,0,0,.14-1.3c0-.69,0-1.21.31-1.51a3.72,3.72,0,0,1,2.52-.49c2.91.13,4.84.82,5.57,2C84.56,21.41,84.5,22.61,83.84,24.14Z"/><text x="0" y="115" fill="#000000" font-size="5px" font-weight="bold" font-family="'Helvetica Neue', Helvetica, Arial-Unicode, Arial, Sans-serif">Created by Icons Producer</text><text x="0" y="120" fill="#000000" font-size="5px" font-weight="bold" font-family="'Helvetica Neue', Helvetica, Arial-Unicode, Arial, Sans-serif">from the Noun Project</text></svg>